PathFileType	4	(X/Y/Z)	3_2_45_p0_0-653_filt_butterworth.trc
DataRate	CameraRate	NumFrames	NumMarkers	Units	OrigDataRate	OrigDataStartFrame	OrigNumFrames
59.0	59.0	4	27	m	59.0	0	653
Frame#	Time	RHip			RKnee			RAnkle			RBigToe			RSmallToe			RHeel			LHip			LKnee			LAnkle			LBigToe			LSmallToe			LHeel			Neck			Head			Nose			RShoulder			RElbow			RWrist			RThumb			RIndex			RPinky			LShoulder			LElbow			LWrist			LThumb			LIndex			LPinky			
		X1	Y1	Z1	X2	Y2	Z2	X3	Y3	Z3	X4	Y4	Z4	X5	Y5	Z5	X6	Y6	Z6	X7	Y7	Z7	X8	Y8	Z8	X9	Y9	Z9	X10	Y10	Z10	X11	Y11	Z11	X12	Y12	Z12	X13	Y13	Z13	X14	Y14	Z14	X15	Y15	Z15	X16	Y16	Z16	X17	Y17	Z17	X18	Y18	Z18	X19	Y19	Z19	X20	Y20	Z20	X21	Y21	Z21	X22	Y22	Z22	X23	Y23	Z23	X24	Y24	Z24	X25	Y25	Z25	X26	Y26	Z26	X27	Y27	Z27	
0	0.0	0.21138354938428688	0.9651651412632217	0.41614659203098037	0.20380697255029318	0.4916083100846139	0.4274156907783976	0.1581275099330608	0.05965847931198763	0.4965029612233443	0.15958982615206305	0.09274472243104243	0.25826723033202237	0.20446647915970698	0.07452087689913679	0.312657419941688	0.14692038570524107	0.017886238008507648	0.5061933237048208	-0.011992965349901756	0.9501110951865334	0.40620791401948664	-0.029003792797289225	0.49639058700341454	0.41473842718023074	-0.019440648530107223	0.09174300499275967	0.430678830862388	-0.001961847512385434	0.07385260517683384	0.2768185248080145	-0.05064922805711199	0.08852280092097499	0.30019297852114296	-0.012789248150525397	0.027101733800249793	0.5120439387544227	0.10820602491426212	1.504703138411265	0.41882756692486856	0.1332398268307967	1.7674770300280556	0.3504930523320561	0.12941463957586688	1.6251918733145114	0.2984242572676498	0.2763022290443577	1.4322187829027015	0.4188683748869573	0.31419172591229283	1.169872017793588	0.34755183067377016	0.19609664456236683	1.0028043174173826	0.20553860806929117	0.05238265418377856	0.9601845568319258	0.13193323329474976	0.05866922199861253	0.919582707403274	0.12732129847293766	0.110038213963403	0.8699906307449075	0.14119544907046178	-0.035847717607923525	1.4471558897146586	0.40348613116350973	-0.0655485274077808	1.1941310413521495	0.2829727364551998	0.0723786506191824	1.0142100132276988	0.17483992268968385	0.0870275629205682	0.9507819248555425	0.13704510643729628	0.0904497640588979	0.9279639954159381	0.13359595378713254	0.09937668217804611	0.899957886224093	0.17092212952052988	
1	0.0169491525423728	0.21157057839852383	0.9602085421929706	0.4184092094371879	0.20311357359038257	0.4911907389961249	0.4269594497586589	0.15947222217067555	0.061065031207096124	0.4935020230167908	0.16078731431615872	0.0889314677524642	0.26437554837533594	0.20516877836417177	0.07387638485240422	0.3133824449124505	0.14699703639201098	0.016542467058641135	0.5067193823331048	-0.011291360300180193	0.9484831845185915	0.40343824636563447	-0.028764424010477598	0.4969816281327581	0.41467021279907607	-0.018895060382739193	0.09345594776982238	0.43125592075856073	-0.00023817167706232322	0.0793669961529762	0.26878161462338407	-0.05099842929271831	0.08871049956484903	0.29586116291743353	-0.012475589631268116	0.025796083918731966	0.5140479320547332	0.10846305700795697	1.504870018471308	0.4196764510203257	0.13359301677847357	1.7679164426314447	0.3497918624189645	0.1319831227197503	1.6248397200941285	0.30004427726397037	0.2782772506317714	1.4320453327760043	0.4201028042773926	0.312137101015244	1.1672709441212563	0.3552639188091607	0.19630982128850422	1.0057442206870568	0.2040783780796131	0.046627915986331134	0.961960312933616	0.14974270487841101	0.04867278907658413	0.9188700013837338	0.15335182087502655	0.10857210723531399	0.8680189841779908	0.16266370624376167	-0.035744299435076066	1.4464134431800357	0.40370872976608835	-0.06522264283131933	1.1929520890515004	0.2839092937450914	0.06989441689066873	1.0118484275446433	0.1850593497644668	0.08848300735639142	0.9493476186519141	0.13794223317547788	0.09243489410350555	0.9258635308891997	0.14465342096749367	0.10150030689492522	0.9001166861988981	0.17555749727993125	
2	0.0338983050847457	0.21167807255764973	0.95616767263579	0.4200642004533536	0.20261696589673214	0.49086053461857454	0.4266428246336756	0.160654456239453	0.06231090911674575	0.4907934071649849	0.16155033666554763	0.08655521318443304	0.26818676762277377	0.2054571493203502	0.073629609718065	0.31370434153915483	0.14706677316726974	0.015449588323022134	0.5071560170328268	-0.01077126141075694	0.9472432877824685	0.4010608282200753	-0.028581646443333997	0.49743384614755615	0.41460202482279535	-0.018518159475739954	0.09490276451419925	0.4317052902896848	0.0014304700000327586	0.08255725828245282	0.2642105097592028	-0.05124962613613796	0.08891982472241197	0.29257992001903727	-0.012223911008697491	0.024724659336723465	0.5157244739980953	0.10861846700584053	1.5047628283506682	0.42024315682384006	0.13369035445777375	1.7680943969846412	0.34962996225921367	0.13335211367453226	1.6247215542924398	0.3007160629386181	0.2795394267503483	1.4319348195161166	0.42088830625621493	0.3102177332908255	1.1650386993060677	0.36177966720270655	0.19639330710026046	1.0071995752468696	0.20380589502474242	0.046579385420998425	0.9595722556889826	0.1654398936291506	0.04562991725430854	0.9173351692949483	0.1741038775039833	0.10771248336965539	0.8688094674407515	0.17805338916141997	-0.0356848729095784	1.4454965435891607	0.40388380607286034	-0.0651071703253134	1.1917261026112982	0.28442032224211117	0.0682699019982216	1.0104126373650173	0.19182332760782433	0.09238141815545976	0.9474222208792432	0.1454603741728221	0.09545287580237609	0.9228763780807374	0.1573759095739596	0.10313033783350771	0.9004851366689804	0.18042537848646412	
3	0.0508474576271186	0.2117115990024207	0.9529722859400651	0.42116650322582655	0.2022988110520549	0.49061463951731	0.42645219462722206	0.16168064191804352	0.06340627030173031	0.48836152081515444	0.16195830199320913	0.08534921673646657	0.2701481114122803	0.2054395479714059	0.07372378293958144	0.31366294521957605	0.14712970276529946	0.014588300557361399	0.5075100145916853	-0.010417342616541637	0.9463591357853273	0.399048234159667	-0.028449908278531666	0.49776164615386853	0.4145342565534256	-0.01829412144636153	0.09610259008512238	0.43203721186273425	0.0030044744523116305	0.08390743017654984	0.26238036554697824	-0.05142417460039161	0.08920914926578874	0.2902132608406955	-0.01202865500648151	0.02386836023963563	0.5170975369929837	0.1086903730693929	1.5044317085650782	0.42057633770071784	0.133596740465549	1.7680492946369897	0.3498637053841554	0.1337743559497903	1.6247577852830102	0.3007524918650681	0.2802251309004743	1.4318743517491956	0.4213111781032447	0.3084769149940331	1.163152908230318	0.3671321580211119	0.19640317536204613	1.007444604999719	0.20452557864437187	0.0508975142545845	0.9540897228302521	0.17905574697481957	0.048020059728939773	0.9152241771777915	0.19014790657472083	0.1073472474458792	0.8717275692223572	0.18829693148960544	-0.03566094696131935	1.44449851531193	0.40401984492612597	-0.06514362402230794	1.1905517788527273	0.2846173997806197	0.06735486484767664	1.0096867442719188	0.19577580390554455	0.09801045556742326	0.9452413083621228	0.1576362286729191	0.0992525621149416	0.9193221730056752	0.17092584401366204	0.10439923313757224	0.9009587968475343	0.185439468520116	
